STARTFONT 2.1
FONT -FontForge-Lato-Bold-R-Normal--25-240-75-75-P-132-ISO10646-1
SIZE 24 75 75
FONTBOUNDINGBOX 31 28 -2 -4
COMMENT "Generated by fontforge, http://fontforge.sourceforge.net"
COMMENT "Copyright (c) 2010-2011 by tyPoland Lukasz Dziedzic with Reserved Font Name "Lato". Licensed under the SIL Open Font License, Version 1.1."
STARTPROPERTIES 41
FOUNDRY "FontForge"
FAMILY_NAME "Lato"
WEIGHT_NAME "Bold"
SLANT "R"
SETWIDTH_NAME "Normal"
ADD_STYLE_NAME ""
PIXEL_SIZE 25
POINT_SIZE 240
RESOLUTION_X 75
RESOLUTION_Y 75
SPACING "P"
AVERAGE_WIDTH 132
CHARSET_REGISTRY "ISO10646"
CHARSET_ENCODING "1"
FONTNAME_REGISTRY ""
CHARSET_COLLECTIONS "ISO10646-1"
FONT_NAME "Lato-Bold"
FACE_NAME "Lato Bold"
COPYRIGHT "Copyright (c) 2010-2011 by tyPoland Lukasz Dziedzic with Reserved Font Name "Lato". Licensed under the SIL Open Font License, Version 1.1."
FONT_VERSION "1.104; Western+Polish opensource"
FONT_ASCENT 20
FONT_DESCENT 5
UNDERLINE_POSITION -2
UNDERLINE_THICKNESS 2
X_HEIGHT 12
CAP_HEIGHT 17
DEFAULT_CHAR 1
RAW_ASCENT 805
RAW_DESCENT 195
NORM_SPACE 5
RELATIVE_WEIGHT 70
RELATIVE_SETWIDTH 50
SUPERSCRIPT_X 0
SUPERSCRIPT_Y 11
SUPERSCRIPT_SIZE 16
SUBSCRIPT_X 0
SUBSCRIPT_Y 3
SUBSCRIPT_SIZE 16
FIGURE_WIDTH 15
AVG_LOWERCASE_WIDTH 129
AVG_UPPERCASE_WIDTH 166
ENDPROPERTIES
CHARS 275
STARTCHAR NULL.dup1
ENCODING 0
SWIDTH 0 0
DWIDTH 0 0
BBX 1 1 0 0
BITMAP
00
ENDCHAR
STARTCHAR nonmarkingreturn
ENCODING 13
SWIDTH 0 0
DWIDTH 0 0
BBX 1 1 0 0
BITMAP
00
ENDCHAR
STARTCHAR space
ENCODING 32
SWIDTH 193 0
DWIDTH 5 0
BBX 1 1 0 0
BITMAP
00
ENDCHAR
STARTCHAR exclam
ENCODING 33
SWIDTH 360 0
DWIDTH 9 0
BBX 3 18 3 0
BITMAP
E0
E0
E0
E0
E0
E0
E0
E0
E0
E0
E0
E0
00
00
E0
E0
E0
E0
ENDCHAR
STARTCHAR quotedbl
ENCODING 34
SWIDTH 422 0
DWIDTH 11 0
BBX 7 7 2 11
BITMAP
CE
CE
CE
CE
CE
CE
C4
ENDCHAR
STARTCHAR numbersign
ENCODING 35
SWIDTH 580 0
DWIDTH 15 0
BBX 14 18 0 0
BITMAP
0730
0630
0E30
0E70
0E70
7FFC
7FFC
0C60
1C60
1CE0
1CE0
7FF8
FFF8
18C0
38C0
39C0
39C0
31C0
ENDCHAR
STARTCHAR dollar
ENCODING 36
SWIDTH 580 0
DWIDTH 15 0
BBX 13 24 1 -3
BITMAP
0100
0300
0300
0FC0
3FF0
7FF0
7320
7300
7300
7300
7F00
3FC0
0FE0
07F0
0670
0638
0630
4670
F6F0
FFE0
3FC0
0600
0600
0400
ENDCHAR
STARTCHAR percent
ENCODING 37
SWIDTH 803 0
DWIDTH 20 0
BBX 18 18 1 0
BITMAP
3C0380
7E0700
E70600
C30E00
C31C00
C33800
E73000
7E7000
3CE000
01CF00
039F80
03B9C0
0738C0
0E30C0
1C30C0
1C38C0
381F80
700F00
ENDCHAR
STARTCHAR ampersand
ENCODING 38
SWIDTH 714 0
DWIDTH 18 0
BBX 17 18 1 0
BITMAP
07C000
1FE000
1EF000
387000
380000
380000
1C0000
1E0000
3F0E00
7F8E00
F3CE00
E1EC00
E0FC00
E07800
F07C00
79FE00
7FEF00
1F8780
ENDCHAR
STARTCHAR quotesingle
ENCODING 39
SWIDTH 238 0
DWIDTH 6 0
BBX 2 7 2 11
BITMAP
C0
C0
C0
C0
C0
C0
C0
ENDCHAR
STARTCHAR parenleft
ENCODING 40
SWIDTH 300 0
DWIDTH 8 0
BBX 6 24 1 -4
BITMAP
10
18
1C
38
30
70
70
70
60
E0
E0
E0
E0
E0
E0
60
60
70
70
30
38
38
1C
18
ENDCHAR
STARTCHAR parenright
ENCODING 41
SWIDTH 300 0
DWIDTH 8 0
BBX 5 24 1 -4
BITMAP
40
C0
E0
60
70
70
30
38
38
38
38
38
38
38
38
38
38
38
70
70
70
E0
E0
40
ENDCHAR
STARTCHAR asterisk
ENCODING 42
SWIDTH 400 0
DWIDTH 10 0
BBX 8 8 1 11
BITMAP
18
9A
FF
3C
3C
FF
9A
18
ENDCHAR
STARTCHAR plus
ENCODING 43
SWIDTH 580 0
DWIDTH 15 0
BBX 12 13 1 2
BITMAP
0600
0600
0600
0600
0600
0600
FFF0
FFF0
0600
0600
0600
0600
0600
ENDCHAR
STARTCHAR comma
ENCODING 44
SWIDTH 225 0
DWIDTH 6 0
BBX 4 8 1 -4
BITMAP
60
F0
F0
70
20
60
C0
80
ENDCHAR
STARTCHAR hyphen
ENCODING 45
SWIDTH 359 0
DWIDTH 9 0
BBX 7 2 1 6
BITMAP
FE
FE
ENDCHAR
STARTCHAR period
ENCODING 46
SWIDTH 225 0
DWIDTH 6 0
BBX 4 4 1 0
BITMAP
60
F0
F0
60
ENDCHAR
STARTCHAR slash
ENCODING 47
SWIDTH 387 0
DWIDTH 10 0
BBX 10 20 0 -1
BITMAP
01C0
0180
0380
0380
0300
0700
0600
0600
0E00
0C00
1C00
1800
1800
3800
3000
7000
6000
6000
E000
8000
ENDCHAR
STARTCHAR zero
ENCODING 48
SWIDTH 580 0
DWIDTH 15 0
BBX 13 18 1 0
BITMAP
0F80
3FC0
7DE0
70F0
E070
E070
E038
E038
E038
E038
E038
E038
E070
E070
70F0
7DE0
3FC0
0F80
ENDCHAR
STARTCHAR one
ENCODING 49
SWIDTH 580 0
DWIDTH 15 0
BBX 11 18 2 0
BITMAP
0700
0F00
1F00
7F00
F700
6700
0700
0700
0700
0700
0700
0700
0700
0700
0700
0700
7FE0
7FE0
ENDCHAR
STARTCHAR two
ENCODING 50
SWIDTH 580 0
DWIDTH 15 0
BBX 12 18 1 0
BITMAP
0F80
3FE0
79E0
7070
F070
0070
0070
00F0
00E0
01E0
03C0
0780
0F00
1E00
3C00
7800
FFF0
FFF0
ENDCHAR
STARTCHAR three
ENCODING 51
SWIDTH 580 0
DWIDTH 15 0
BBX 13 18 1 0
BITMAP
0F80
3FE0
3CF0
7070
7070
0070
0070
01E0
0780
07E0
00F0
0078
0038
E078
7070
7DF0
3FE0
1F80
ENDCHAR
STARTCHAR four
ENCODING 52
SWIDTH 580 0
DWIDTH 15 0
BBX 14 18 0 0
BITMAP
00F0
00F0
01F0
03F0
0770
0770
0E70
1C70
3870
3870
7070
FFFC
7FFC
0070
0070
0070
0070
0070
ENDCHAR
STARTCHAR five
ENCODING 53
SWIDTH 580 0
DWIDTH 15 0
BBX 12 18 1 0
BITMAP
3FE0
3FE0
3800
3000
3000
7000
7F80
7FC0
33E0
00F0
0070
0070
0070
0070
40E0
F3E0
FFC0
3F00
ENDCHAR
STARTCHAR six
ENCODING 54
SWIDTH 580 0
DWIDTH 15 0
BBX 13 18 1 0
BITMAP
01E0
03C0
0780
0F00
0E00
1C00
3C00
7FC0
7FF0
F8F0
F078
E038
E038
E078
7070
7FF0
3FE0
0F80
ENDCHAR
STARTCHAR seven
ENCODING 55
SWIDTH 580 0
DWIDTH 15 0
BBX 13 18 1 0
BITMAP
FFF8
FFF8
0078
0070
00F0
00E0
01E0
01C0
03C0
0380
0780
0700
0F00
0E00
1E00
1C00
3C00
3800
ENDCHAR
STARTCHAR eight
ENCODING 56
SWIDTH 580 0
DWIDTH 15 0
BBX 13 18 1 0
BITMAP
0F80
3FE0
79E0
7070
7070
7070
70E0
3FC0
3FC0
79F0
F070
E070
E078
E070
F070
79F0
3FE0
1F80
ENDCHAR
STARTCHAR nine
ENCODING 57
SWIDTH 580 0
DWIDTH 15 0
BBX 12 18 2 0
BITMAP
1F00
3FC0
79E0
E0E0
E070
E070
E070
E0F0
F9E0
7FE0
3FC0
01C0
0380
0700
0F00
1E00
3C00
7800
ENDCHAR
STARTCHAR colon
ENCODING 58
SWIDTH 265 0
DWIDTH 7 0
BBX 4 13 1 0
BITMAP
70
F0
F0
70
00
00
00
00
00
70
F0
F0
70
ENDCHAR
STARTCHAR semicolon
ENCODING 59
SWIDTH 265 0
DWIDTH 7 0
BBX 4 17 1 -4
BITMAP
70
F0
F0
70
00
00
00
00
00
70
70
F0
70
30
60
60
40
ENDCHAR
STARTCHAR less
ENCODING 60
SWIDTH 580 0
DWIDTH 15 0
BBX 10 11 2 3
BITMAP
00C0
03C0
0F80
1F00
7C00
F000
F800
3E00
0F80
03C0
00C0
ENDCHAR
STARTCHAR equal
ENCODING 61
SWIDTH 580 0
DWIDTH 15 0
BBX 11 7 2 5
BITMAP
FFE0
FFE0
0000
0000
0000
FFE0
FFE0
ENDCHAR
STARTCHAR greater
ENCODING 62
SWIDTH 580 0
DWIDTH 15 0
BBX 10 11 3 3
BITMAP
8000
E000
F800
3E00
0F80
03C0
0F80
3E00
F800
E000
C000
ENDCHAR
STARTCHAR question
ENCODING 63
SWIDTH 420 0
DWIDTH 11 0
BBX 10 18 0 0
BITMAP
1F00
7F80
F3C0
01C0
01C0
01C0
0380
0700
0E00
0C00
0C00
0000
0000
0000
1C00
1E00
1E00
1C00
ENDCHAR
STARTCHAR at
ENCODING 64
SWIDTH 822 0
DWIDTH 21 0
BBX 19 20 1 -3
BITMAP
03FC00
0FFE00
1E0780
380180
7001C0
60FCC0
E1FCE0
C39C60
C71860
C618E0
C618E0
C638C0
C77BC0
E7FF80
63CF00
700000
3C0180
1F8780
0FFF00
01FC00
ENDCHAR
STARTCHAR A
ENCODING 65
SWIDTH 710 0
DWIDTH 18 0
BBX 18 18 0 0
BITMAP
01E000
01E000
03F000
03F000
077000
073800
073800
0E3C00
0E1C00
1E1C00
1C0E00
1FFE00
3FFF00
380700
780700
700780
700380
F003C0
ENDCHAR
STARTCHAR B
ENCODING 66
SWIDTH 651 0
DWIDTH 16 0
BBX 13 18 2 0
BITMAP
FFC0
FFE0
E1F0
E078
E078
E078
E070
E1E0
FFC0
FFF0
E078
E038
E038
E038
E078
E0F0
FFE0
FFC0
ENDCHAR
STARTCHAR C
ENCODING 67
SWIDTH 670 0
DWIDTH 17 0
BBX 15 18 1 0
BITMAP
03F8
0FFE
3F3E
7C04
7800
F000
F000
E000
E000
E000
E000
F000
F000
7800
780C
3F3E
1FFC
07F0
ENDCHAR
STARTCHAR D
ENCODING 68
SWIDTH 747 0
DWIDTH 19 0
BBX 16 18 2 0
BITMAP
FFC0
FFF0
E1F8
E03C
E01E
E00E
E00F
E00F
E00F
E00F
E00F
E00F
E00E
E01E
E03C
E1F8
FFF0
FFC0
ENDCHAR
STARTCHAR E
ENCODING 69
SWIDTH 572 0
DWIDTH 14 0
BBX 11 18 2 0
BITMAP
FFE0
FFE0
E000
E000
E000
E000
E000
E000
FFC0
FFC0
E000
E000
E000
E000
E000
E000
FFE0
FFE0
ENDCHAR
STARTCHAR F
ENCODING 70
SWIDTH 561 0
DWIDTH 14 0
BBX 11 18 2 0
BITMAP
FFE0
FFE0
E000
E000
E000
E000
E000
E000
FFC0
FFC0
E000
E000
E000
E000
E000
E000
E000
E000
ENDCHAR
STARTCHAR G
ENCODING 71
SWIDTH 723 0
DWIDTH 18 0
BBX 16 18 1 0
BITMAP
03F8
0FFE
3F1F
7C06
7800
F000
F000
E000
E000
E03F
E03F
F007
F007
7807
7C07
3F3F
0FFE
03F8
ENDCHAR
STARTCHAR H
ENCODING 72
SWIDTH 756 0
DWIDTH 19 0
BBX 15 18 2 0
BITMAP
E00E
E00E
E00E
E00E
E00E
E00E
E00E
E00E
FFFE
FFFE
E00E
E00E
E00E
E00E
E00E
E00E
E00E
E00E
ENDCHAR
STARTCHAR I
ENCODING 73
SWIDTH 314 0
DWIDTH 8 0
BBX 4 18 2 0
BITMAP
F0
F0
F0
F0
F0
F0
F0
F0
F0
F0
F0
F0
F0
F0
F0
F0
F0
F0
ENDCHAR
STARTCHAR J
ENCODING 74
SWIDTH 437 0
DWIDTH 11 0
BBX 9 18 0 0
BITMAP
0380
0380
0380
0380
0380
0380
0380
0380
0380
0380
0380
0380
0380
0380
0780
0F00
7E00
FC00
ENDCHAR
STARTCHAR K
ENCODING 75
SWIDTH 698 0
DWIDTH 17 0
BBX 15 18 2 0
BITMAP
E01E
E03C
E078
E0F0
E1E0
E1C0
E3C0
E780
FF00
FF80
E3C0
E3C0
E1E0
E0F0
E078
E038
E03C
E01E
ENDCHAR
STARTCHAR L
ENCODING 76
SWIDTH 517 0
DWIDTH 13 0
BBX 10 18 2 0
BITMAP
E000
E000
E000
E000
E000
E000
E000
E000
E000
E000
E000
E000
E000
E000
E000
FFC0
FFC0
FFC0
ENDCHAR
STARTCHAR M
ENCODING 77
SWIDTH 930 0
DWIDTH 23 0
BBX 19 18 2 0
BITMAP
E000E0
F001E0
F801E0
F803E0
FC03E0
FC07E0
EE07E0
EE0EE0
E71EE0
E71CE0
E3BCE0
E3B8E0
E1F0E0
E1F0E0
E0E0E0
E060E0
E000E0
E000E0
ENDCHAR
STARTCHAR N
ENCODING 78
SWIDTH 756 0
DWIDTH 19 0
BBX 15 18 2 0
BITMAP
E00E
E00E
F00E
F80E
FC0E
FE0E
EE0E
EF0E
E78E
E3CE
E1EE
E0EE
E0FE
E07E
E03E
E01E
E01E
E00E
ENDCHAR
STARTCHAR O
ENCODING 79
SWIDTH 799 0
DWIDTH 20 0
BBX 18 18 1 0
BITMAP
03F000
0FFC00
3F3F00
380700
780780
F003C0
F003C0
E001C0
E001C0
E001C0
E001C0
F003C0
F003C0
780780
380700
3F3F00
0FFC00
03F000
ENDCHAR
STARTCHAR P
ENCODING 80
SWIDTH 625 0
DWIDTH 16 0
BBX 13 18 2 0
BITMAP
FF80
FFE0
E1F0
E070
E078
E078
E078
E078
E0F0
FFE0
FFC0
E000
E000
E000
E000
E000
E000
E000
ENDCHAR
STARTCHAR Q
ENCODING 81
SWIDTH 799 0
DWIDTH 20 0
BBX 19 22 1 -4
BITMAP
03F000
0FFC00
3F3F00
380700
780780
F003C0
F003C0
E001C0
E001C0
E001C0
E001C0
F003C0
F003C0
780780
380780
3F3F00
0FFE00
03FE00
000F00
000780
0003C0
0000E0
ENDCHAR
STARTCHAR R
ENCODING 82
SWIDTH 655 0
DWIDTH 16 0
BBX 14 18 2 0
BITMAP
FF80
FFE0
E1F0
E070
E070
E070
E070
E0F0
E3E0
FFC0
FF80
E3C0
E1C0
E1E0
E0F0
E070
E078
E03C
ENDCHAR
STARTCHAR S
ENCODING 83
SWIDTH 536 0
DWIDTH 13 0
BBX 13 18 0 0
BITMAP
0FC0
1FF0
3CF0
7820
7000
7800
7C00
3F80
3FE0
0FF0
03F0
0078
0078
0078
6070
7CF0
FFE0
1F80
ENDCHAR
STARTCHAR T
ENCODING 84
SWIDTH 595 0
DWIDTH 15 0
BBX 15 18 0 0
BITMAP
FFFE
FFFE
0380
0380
0380
0380
0380
0380
0380
0380
0380
0380
0380
0380
0380
0380
0380
0380
ENDCHAR
STARTCHAR U
ENCODING 85
SWIDTH 728 0
DWIDTH 18 0
BBX 15 18 2 0
BITMAP
E01E
E01E
E01E
E01E
E01E
E01E
E01E
E01E
E01E
E01E
E01E
E01E
E01C
F01C
703C
7CF8
3FF0
0FC0
ENDCHAR
STARTCHAR V
ENCODING 86
SWIDTH 710 0
DWIDTH 18 0
BBX 18 18 0 0
BITMAP
F003C0
700380
780780
780700
380F00
3C0E00
1C0E00
1C1E00
1E1C00
0E3C00
0F3800
073800
077800
03F000
03F000
03E000
01E000
01E000
ENDCHAR
STARTCHAR W
ENCODING 87
SWIDTH 1046 0
DWIDTH 26 0
BBX 26 18 0 0
BITMAP
F00E03C0
701E03C0
781E0380
781F0780
383F0780
383F0700
3C3B8700
3C738F00
1C738E00
1E71CE00
1EE1DE00
0EE1DC00
0EE0FC00
0FC0FC00
07C0FC00
07C07800
07807800
03807800
ENDCHAR
STARTCHAR X
ENCODING 88
SWIDTH 679 0
DWIDTH 17 0
BBX 17 18 0 0
BITMAP
F80780
780F00
3C1E00
1C1C00
1E3C00
0F3800
077000
07F000
03E000
03E000
07F000
0F7800
0E3800
1E3C00
3C1E00
381E00
780F00
F00780
ENDCHAR
STARTCHAR Y
ENCODING 89
SWIDTH 654 0
DWIDTH 16 0
BBX 16 18 0 0
BITMAP
F007
700F
781E
3C1C
1C3C
1E38
0E78
0F70
07E0
03E0
03C0
03C0
03C0
03C0
03C0
03C0
03C0
03C0
ENDCHAR
STARTCHAR Z
ENCODING 90
SWIDTH 617 0
DWIDTH 15 0
BBX 14 18 1 0
BITMAP
FFFC
FFFC
0078
0078
00F0
01E0
03E0
03C0
0780
0F00
0F00
1E00
3C00
3C00
7800
F000
FFFC
FFFC
ENDCHAR
STARTCHAR bracketleft
ENCODING 91
SWIDTH 300 0
DWIDTH 8 0
BBX 6 23 1 -4
BITMAP
FC
F8
E0
E0
E0
E0
E0
E0
E0
E0
E0
E0
E0
E0
E0
E0
E0
E0
E0
E0
E0
FC
FC
ENDCHAR
STARTCHAR backslash
ENCODING 92
SWIDTH 390 0
DWIDTH 10 0
BBX 10 20 0 -1
BITMAP
C000
E000
6000
7000
7000
3000
3800
1800
1800
1C00
0C00
0E00
0600
0600
0700
0300
0380
0180
0180
00C0
ENDCHAR
STARTCHAR bracketright
ENCODING 93
SWIDTH 300 0
DWIDTH 8 0
BBX 5 23 1 -4
BITMAP
F8
F8
38
38
38
38
38
38
38
38
38
38
38
38
38
38
38
38
38
38
38
F8
F8
ENDCHAR
STARTCHAR asciicircum
ENCODING 94
SWIDTH 580 0
DWIDTH 15 0
BBX 11 9 2 9
BITMAP
0C00
1E00
1F00
3F00
3B80
7380
71C0
E0C0
C060
ENDCHAR
STARTCHAR underscore
ENCODING 95
SWIDTH 394 0
DWIDTH 10 0
BBX 10 2 0 -4
BITMAP
FFC0
FFC0
ENDCHAR
STARTCHAR grave
ENCODING 96
SWIDTH 319 0
DWIDTH 8 0
BBX 6 4 0 14
BITMAP
F0
78
38
0C
ENDCHAR
STARTCHAR a
ENCODING 97
SWIDTH 523 0
DWIDTH 13 0
BBX 11 13 1 0
BITMAP
1F00
7FC0
7BC0
01E0
00E0
00E0
1FE0
7FE0
F0E0
E0E0
F3E0
7FE0
3CE0
ENDCHAR
STARTCHAR b
ENCODING 98
SWIDTH 570 0
DWIDTH 14 0
BBX 11 19 2 0
BITMAP
E000
E000
E000
E000
E000
E000
EF80
FFC0
FBE0
E0E0
E0E0
E0E0
E0E0
E0E0
E0E0
E0E0
FBC0
FFC0
CF00
ENDCHAR
STARTCHAR c
ENCODING 99
SWIDTH 477 0
DWIDTH 12 0
BBX 11 13 1 0
BITMAP
1F80
3FC0
7DC0
F000
E000
E000
E000
E000
E000
F080
79C0
3FE0
1F00
ENDCHAR
STARTCHAR d
ENCODING 100
SWIDTH 570 0
DWIDTH 14 0
BBX 12 19 1 0
BITMAP
00F0
00F0
00F0
00F0
00F0
00F0
1EF0
3FF0
79F0
F0F0
E0F0
E0F0
E0F0
E0F0
E0F0
E0F0
7BF0
7F70
3E70
ENDCHAR
STARTCHAR e
ENCODING 101
SWIDTH 534 0
DWIDTH 13 0
BBX 12 13 1 0
BITMAP
1F00
3FC0
79E0
E0E0
E060
FFE0
FFF0
E000
E000
F000
78E0
3FE0
1F80
ENDCHAR
STARTCHAR f
ENCODING 102
SWIDTH 350 0
DWIDTH 9 0
BBX 9 18 0 0
BITMAP
0F80
1F80
3C00
3800
3800
FF80
FF80
3800
3800
3800
3800
3800
3800
3800
3800
3800
3800
3800
ENDCHAR
STARTCHAR g
ENCODING 103
SWIDTH 517 0
DWIDTH 13 0
BBX 13 17 0 -4
BITMAP
1FF8
3FF8
7DF0
70E0
70E0
79E0
3FC0
1F80
3000
7800
3FE0
3FF0
6070
E070
78F0
7FE0
1F80
ENDCHAR
STARTCHAR h
ENCODING 104
SWIDTH 568 0
DWIDTH 14 0
BBX 11 19 2 0
BITMAP
E000
E000
E000
E000
E000
E000
EF80
FFC0
FBC0
E1E0
E0E0
E0E0
E0E0
E0E0
E0E0
E0E0
E0E0
E0E0
E0E0
ENDCHAR
STARTCHAR i
ENCODING 105
SWIDTH 271 0
DWIDTH 7 0
BBX 4 19 1 0
BITMAP
70
70
F0
70
00
00
70
70
70
70
70
70
70
70
70
70
70
70
70
ENDCHAR
STARTCHAR j
ENCODING 106
SWIDTH 269 0
DWIDTH 7 0
BBX 6 23 -1 -4
BITMAP
1C
1C
3C
1C
00
00
1C
1C
1C
1C
1C
1C
1C
1C
1C
1C
1C
1C
1C
1C
3C
F8
F0
ENDCHAR
STARTCHAR k
ENCODING 107
SWIDTH 551 0
DWIDTH 14 0
BBX 12 19 2 0
BITMAP
E000
E000
E000
E000
E000
E000
E1E0
E1C0
E380
E700
EF00
FE00
FE00
EF00
E700
E380
E3C0
E1E0
E0F0
ENDCHAR
STARTCHAR l
ENCODING 108
SWIDTH 271 0
DWIDTH 7 0
BBX 3 19 2 0
BITMAP
E0
E0
E0
E0
E0
E0
E0
E0
E0
E0
E0
E0
E0
E0
E0
E0
E0
E0
E0
ENDCHAR
STARTCHAR m
ENCODING 109
SWIDTH 842 0
DWIDTH 21 0
BBX 18 13 2 0
BITMAP
CF1F00
FFBF80
FBF780
E1E3C0
E1C1C0
E1C1C0
E1C1C0
E1C1C0
E1C1C0
E1C1C0
E1C1C0
E1C1C0
E1C1C0
ENDCHAR
STARTCHAR n
ENCODING 110
SWIDTH 568 0
DWIDTH 14 0
BBX 11 13 2 0
BITMAP
CF80
FFC0
FBC0
E1E0
E0E0
E0E0
E0E0
E0E0
E0E0
E0E0
E0E0
E0E0
E0E0
ENDCHAR
STARTCHAR o
ENCODING 111
SWIDTH 568 0
DWIDTH 14 0
BBX 12 13 1 0
BITMAP
1F80
3FC0
79E0
F070
E070
E070
E070
E070
E070
F070
79E0
3FC0
1F80
ENDCHAR
STARTCHAR p
ENCODING 112
SWIDTH 565 0
DWIDTH 14 0
BBX 11 17 2 -4
BITMAP
CF80
FFC0
FBE0
E0E0
E0E0
E0E0
E0E0
E0E0
E0E0
E1E0
F3C0
FFC0
EF00
E000
E000
E000
E000
ENDCHAR
STARTCHAR q
ENCODING 113
SWIDTH 570 0
DWIDTH 14 0
BBX 12 17 1 -4
BITMAP
1E70
3FF0
79F0
F0F0
E0F0
E0F0
E0F0
E0F0
E0F0
E0F0
7BF0
7FF0
3EF0
00F0
00F0
00F0
00F0
ENDCHAR
STARTCHAR r
ENCODING 114
SWIDTH 408 0
DWIDTH 10 0
BBX 8 13 2 0
BITMAP
CF
FF
F8
E0
E0
E0
E0
E0
E0
E0
E0
E0
E0
ENDCHAR
STARTCHAR s
ENCODING 115
SWIDTH 437 0
DWIDTH 11 0
BBX 9 13 1 0
BITMAP
3E00
7F80
F300
E000
E000
FC00
7F00
0F80
0380
0380
E780
FF00
7E00
ENDCHAR
STARTCHAR t
ENCODING 116
SWIDTH 387 0
DWIDTH 10 0
BBX 9 17 0 0
BITMAP
1800
1800
1800
1800
FF80
FF80
3800
3800
3800
3800
3800
3800
3800
3800
3F00
1F80
0F00
ENDCHAR
STARTCHAR u
ENCODING 117
SWIDTH 568 0
DWIDTH 14 0
BBX 12 13 1 0
BITMAP
E0F0
E0F0
E0F0
E0F0
E0F0
E0F0
E0F0
E0F0
E0F0
70F0
7BF0
7F70
1E70
ENDCHAR
STARTCHAR v
ENCODING 118
SWIDTH 533 0
DWIDTH 13 0
BBX 13 13 0 0
BITMAP
F038
7038
7070
3870
38E0
38E0
1CE0
1DC0
0DC0
0F80
0F80
0780
0700
ENDCHAR
STARTCHAR w
ENCODING 119
SWIDTH 791 0
DWIDTH 20 0
BBX 20 13 0 0
BITMAP
E0E070
70F0E0
70F0E0
70F0E0
71F9C0
39B9C0
3999C0
3B9D80
1B1F80
1F0F80
1F0F00
0F0F00
0E0700
ENDCHAR
STARTCHAR x
ENCODING 120
SWIDTH 540 0
DWIDTH 14 0
BBX 13 13 0 0
BITMAP
F078
7870
3CE0
1CE0
1FC0
0F80
0780
0FC0
1DC0
1CE0
38F0
7870
F078
ENDCHAR
STARTCHAR y
ENCODING 121
SWIDTH 533 0
DWIDTH 13 0
BBX 13 17 0 -4
BITMAP
F038
7078
7070
3870
38E0
3CE0
1CC0
1DC0
0FC0
0F80
0780
0700
0700
0600
0E00
0E00
1C00
ENDCHAR
STARTCHAR z
ENCODING 122
SWIDTH 469 0
DWIDTH 12 0
BBX 10 13 1 0
BITMAP
FFC0
FFC0
03C0
0380
0700
0E00
1E00
1C00
3800
7000
F000
FFC0
FFC0
ENDCHAR
STARTCHAR braceleft
ENCODING 123
SWIDTH 300 0
DWIDTH 8 0
BBX 7 23 0 -4
BITMAP
1E
3E
78
70
70
30
30
30
30
70
E0
F0
70
30
30
30
30
70
70
70
38
3E
1E
ENDCHAR
STARTCHAR bar
ENCODING 124
SWIDTH 300 0
DWIDTH 8 0
BBX 2 24 3 -4
BITMAP
C0
C0
C0
C0
C0
C0
C0
C0
C0
C0
C0
C0
C0
C0
C0
C0
C0
C0
C0
C0
C0
C0
C0
C0
ENDCHAR
STARTCHAR braceright
ENCODING 125
SWIDTH 300 0
DWIDTH 8 0
BBX 6 23 1 -4
BITMAP
F0
F8
38
38
38
38
38
38
38
3C
1C
1C
38
38
38
38
38
38
38
38
78
F0
E0
ENDCHAR
STARTCHAR asciitilde
ENCODING 126
SWIDTH 580 0
DWIDTH 15 0
BBX 12 5 1 5
BITMAP
0030
7F70
7FF0
E3E0
E000
ENDCHAR
STARTCHAR uni00A0
ENCODING 160
SWIDTH 193 0
DWIDTH 5 0
BBX 1 1 0 0
BITMAP
00
ENDCHAR
STARTCHAR exclamdown
ENCODING 161
SWIDTH 360 0
DWIDTH 9 0
BBX 3 17 3 -4
BITMAP
E0
E0
E0
E0
00
00
E0
E0
E0
E0
E0
E0
E0
E0
E0
E0
E0
ENDCHAR
STARTCHAR cent
ENCODING 162
SWIDTH 580 0
DWIDTH 15 0
BBX 11 19 2 -3
BITMAP
0100
0300
0300
1F80
3FE0
7BE0
F200
E600
E600
E600
E600
E600
E600
F660
7FE0
3FC0
0600
0600
0400
ENDCHAR
STARTCHAR sterling
ENCODING 163
SWIDTH 580 0
DWIDTH 15 0
BBX 14 18 0 0
BITMAP
03E0
0FF8
0F78
1C1C
1C00
1C00
1C00
1C00
7FE0
FFE0
1C00
1C00
1C00
1C00
1C00
3800
7FFC
7FFC
ENDCHAR
STARTCHAR currency
ENCODING 164
SWIDTH 580 0
DWIDTH 15 0
BBX 12 12 1 2
BITMAP
6020
FF70
7FE0
3DC0
30E0
3060
30E0
38C0
3FE0
7FF0
E070
4020
ENDCHAR
STARTCHAR yen
ENCODING 165
SWIDTH 580 0
DWIDTH 15 0
BBX 14 18 0 0
BITMAP
F01C
703C
7838
3878
3C70
1CF0
1CE0
0EE0
0FC0
07C0
3FF8
3FF8
0380
3FF8
3FF8
0380
0380
0380
ENDCHAR
STARTCHAR brokenbar
ENCODING 166
SWIDTH 300 0
DWIDTH 8 0
BBX 2 23 3 -4
BITMAP
C0
C0
C0
C0
C0
C0
C0
C0
C0
C0
00
00
00
C0
C0
C0
C0
C0
C0
C0
C0
C0
C0
ENDCHAR
STARTCHAR section
ENCODING 167
SWIDTH 505 0
DWIDTH 13 0
BBX 11 20 1 -2
BITMAP
1F00
3FC0
79C0
7000
7000
7C00
3F00
7F80
E7C0
E1E0
F0E0
7CC0
3FC0
1F80
03C0
01C0
01C0
73C0
FF80
3E00
ENDCHAR
STARTCHAR dieresis
ENCODING 168
SWIDTH 319 0
DWIDTH 8 0
BBX 8 3 0 15
BITMAP
E7
E7
E7
ENDCHAR
STARTCHAR copyright
ENCODING 169
SWIDTH 791 0
DWIDTH 20 0
BBX 18 18 1 0
BITMAP
03F000
0E1C00
180600
31F300
67F980
CFB880
CE00C0
8C00C0
9C00C0
9C00C0
8E00C0
CE10C0
C7F880
63F180
200300
180600
0E1C00
03F000
ENDCHAR
STARTCHAR ordfeminine
ENCODING 170
SWIDTH 348 0
DWIDTH 9 0
BBX 7 8 1 10
BITMAP
38
FC
6E
06
7E
E6
CE
FE
ENDCHAR
STARTCHAR guillemotleft
ENCODING 171
SWIDTH 486 0
DWIDTH 12 0
BBX 8 10 2 2
BITMAP
31
33
77
66
EE
CC
EE
66
73
33
ENDCHAR
STARTCHAR logicalnot
ENCODING 172
SWIDTH 580 0
DWIDTH 15 0
BBX 11 6 2 3
BITMAP
FFE0
FFE0
00E0
00E0
00E0
00E0
ENDCHAR
STARTCHAR uni00AD
ENCODING 173
SWIDTH 359 0
DWIDTH 9 0
BBX 7 2 1 6
BITMAP
FE
FE
ENDCHAR
STARTCHAR registered
ENCODING 174
SWIDTH 791 0
DWIDTH 20 0
BBX 18 18 1 0
BITMAP
03F000
0E1C00
180600
37F300
67F980
C63880
C618C0
8638C0
87F8C0
87E0C0
8670C0
C670C0
C63880
663980
261F00
180600
0E1C00
03F000
ENDCHAR
STARTCHAR macron
ENCODING 175
SWIDTH 319 0
DWIDTH 8 0
BBX 8 2 0 15
BITMAP
FF
FF
ENDCHAR
STARTCHAR degree
ENCODING 176
SWIDTH 401 0
DWIDTH 10 0
BBX 8 9 1 9
BITMAP
3C
7E
E7
C3
C3
C3
E7
7E
3C
ENDCHAR
STARTCHAR plusminus
ENCODING 177
SWIDTH 580 0
DWIDTH 15 0
BBX 12 15 1 1
BITMAP
0600
0600
0600
0600
0600
FFF0
FFF0
0600
0600
0600
0600
0000
0000
FFF0
FFF0
ENDCHAR
STARTCHAR twosuperior
ENCODING 178
SWIDTH 333 0
DWIDTH 8 0
BBX 7 9 1 11
BITMAP
7C
FC
CC
0C
0C
18
30
7E
FE
ENDCHAR
STARTCHAR threesuperior
ENCODING 179
SWIDTH 333 0
DWIDTH 8 0
BBX 7 9 1 11
BITMAP
7C
7C
CC
0C
18
0C
CE
FC
7C
ENDCHAR
STARTCHAR acute
ENCODING 180
SWIDTH 319 0
DWIDTH 8 0
BBX 6 4 2 14
BITMAP
3C
38
70
C0
ENDCHAR
STARTCHAR mu
ENCODING 181
SWIDTH 568 0
DWIDTH 14 0
BBX 12 17 1 -4
BITMAP
E0F0
E0F0
E0F0
E0F0
E0F0
E0F0
E0F0
E0F0
E0F0
F0F0
FBF0
FFF0
EE70
E000
E000
E000
6000
ENDCHAR
STARTCHAR paragraph
ENCODING 182
SWIDTH 700 0
DWIDTH 18 0
BBX 17 20 0 -2
BITMAP
1FFF80
3FFF80
7F8C00
7F8C00
FF8C00
FF8C00
7F8C00
7F8C00
3F8C00
0F8C00
038C00
038C00
038C00
038C00
038C00
038C00
038C00
038C00
038C00
038C00
ENDCHAR
STARTCHAR periodcentered
ENCODING 183
SWIDTH 279 0
DWIDTH 7 0
BBX 5 5 1 5
BITMAP
70
F8
F8
F8
70
ENDCHAR
STARTCHAR cedilla
ENCODING 184
SWIDTH 319 0
DWIDTH 8 0
BBX 5 5 2 -4
BITMAP
60
60
F0
F8
F0
ENDCHAR
STARTCHAR onesuperior
ENCODING 185
SWIDTH 333 0
DWIDTH 8 0
BBX 6 9 1 12
BITMAP
38
78
F8
58
18
18
18
18
7C
ENDCHAR
STARTCHAR ordmasculine
ENCODING 186
SWIDTH 388 0
DWIDTH 10 0
BBX 8 9 1 9
BITMAP
3C
7E
E7
C7
C3
C7
E7
FE
7C
ENDCHAR
STARTCHAR guillemotright
ENCODING 187
SWIDTH 486 0
DWIDTH 12 0
BBX 9 10 2 2
BITMAP
C400
CC00
EE00
6700
3300
3380
7700
6600
EE00
CC00
ENDCHAR
STARTCHAR onequarter
ENCODING 188
SWIDTH 712 0
DWIDTH 18 0
BBX 17 18 1 0
BITMAP
380600
780C00
F81C00
581800
183000
187000
186000
18E000
7CC000
018700
038F00
031B00
071B00
063300
0C7F80
1C7F80
180300
300300
ENDCHAR
STARTCHAR onehalf
ENCODING 189
SWIDTH 712 0
DWIDTH 18 0
BBX 16 18 1 0
BITMAP
380E
781C
F818
5838
1830
1860
18E0
18C0
7D80
019E
033F
0733
0603
0C06
1C0C
1818
383F
703F
ENDCHAR
STARTCHAR threequarters
ENCODING 190
SWIDTH 712 0
DWIDTH 18 0
BBX 17 18 1 0
BITMAP
780600
FC0C00
CC1C00
0C1800
383000
0C3000
CC6000
FCE000
7CC000
018700
038F00
031B00
071B00
063300
0C7F80
1C7F80
180300
300300
ENDCHAR
STARTCHAR questiondown
ENCODING 191
SWIDTH 420 0
DWIDTH 11 0
BBX 9 17 1 -4
BITMAP
0C00
1E00
1E00
0C00
0000
0000
0C00
0C00
1C00
3C00
F000
E000
C000
E000
FF80
FF80
3E00
ENDCHAR
STARTCHAR Agrave
ENCODING 192
SWIDTH 710 0
DWIDTH 18 0
BBX 18 22 0 0
BITMAP
0F0000
038000
01C000
002000
01E000
01E000
03F000
03F000
077000
073800
073800
0E3C00
0E1C00
1E1C00
1C0E00
1FFE00
3FFF00
380700
780700
700780
700380
F003C0
ENDCHAR
STARTCHAR Aacute
ENCODING 193
SWIDTH 710 0
DWIDTH 18 0
BBX 18 22 0 0
BITMAP
007C00
00F000
01C000
000000
01E000
01E000
03F000
03F000
077000
073800
073800
0E3C00
0E1C00
1E1C00
1C0E00
1FFE00
3FFF00
380700
780700
700780
700380
F003C0
ENDCHAR
STARTCHAR Acircumflex
ENCODING 194
SWIDTH 710 0
DWIDTH 18 0
BBX 18 22 0 0
BITMAP
01C000
03F000
073800
080000
01E000
01E000
03F000
03F000
077000
073800
073800
0E3C00
0E1C00
1E1C00
1C0E00
1FFE00
3FFF00
380700
780700
700780
700380
F003C0
ENDCHAR
STARTCHAR Atilde
ENCODING 195
SWIDTH 710 0
DWIDTH 18 0
BBX 18 22 0 0
BITMAP
03D800
07F800
06F000
000000
01E000
01E000
03F000
03F000
077000
073800
073800
0E3C00
0E1C00
1E1C00
1C0E00
1FFE00
3FFF00
380700
780700
700780
700380
F003C0
ENDCHAR
STARTCHAR Adieresis
ENCODING 196
SWIDTH 710 0
DWIDTH 18 0
BBX 18 22 0 0
BITMAP
063800
073800
063800
000000
01E000
01E000
03F000
03F000
077000
073800
073800
0E3C00
0E1C00
1E1C00
1C0E00
1FFE00
3FFF00
380700
780700
700780
700380
F003C0
ENDCHAR
STARTCHAR Aring
ENCODING 197
SWIDTH 710 0
DWIDTH 18 0
BBX 18 24 0 0
BITMAP
01C000
012000
032000
013000
01C000
000000
01E000
01E000
03F000
03F000
077000
073800
073800
0E3C00
0E1C00
1E1C00
1C0E00
1FFE00
3FFF00
380700
780700
700780
700380
F003C0
ENDCHAR
STARTCHAR AE
ENCODING 198
SWIDTH 934 0
DWIDTH 23 0
BBX 22 18 0 0
BITMAP
007FFC
00FFFC
00FC00
01DC00
01DC00
039C00
039C00
071C00
0F1FF8
0E1FF8
1E1E00
1FFE00
3FFE00
380E00
780E00
700E00
F00FFC
E00FFC
ENDCHAR
STARTCHAR Ccedilla
ENCODING 199
SWIDTH 670 0
DWIDTH 17 0
BBX 15 22 1 -4
BITMAP
03F8
0FFE
3F3E
7C04
7000
F000
F000
E000
E000
E000
E000
F000
F000
7800
7C0C
3FFE
1FFC
07F0
0180
01E0
01E0
03C0
ENDCHAR
STARTCHAR Egrave
ENCODING 200
SWIDTH 572 0
DWIDTH 14 0
BBX 11 22 2 0
BITMAP
F800
1C00
0E00
0100
FFE0
FFE0
E000
E000
E000
E000
E000
E000
FFC0
FFC0
E000
E000
E000
E000
E000
E000
FFE0
FFE0
ENDCHAR
STARTCHAR Eacute
ENCODING 201
SWIDTH 572 0
DWIDTH 14 0
BBX 11 22 2 0
BITMAP
03E0
0700
0E00
1000
FFE0
FFE0
E000
E000
E000
E000
E000
E000
FFC0
FFC0
E000
E000
E000
E000
E000
E000
FFE0
FFE0
ENDCHAR
STARTCHAR Ecircumflex
ENCODING 202
SWIDTH 572 0
DWIDTH 14 0
BBX 11 22 2 0
BITMAP
0E00
1F00
39C0
4000
FFE0
FFE0
E000
E000
E000
E000
E000
E000
FFC0
FFC0
E000
E000
E000
E000
E000
E000
FFE0
FFE0
ENDCHAR
STARTCHAR Edieresis
ENCODING 203
SWIDTH 572 0
DWIDTH 14 0
BBX 11 22 2 0
BITMAP
31C0
79C0
31C0
0000
FFE0
FFE0
E000
E000
E000
E000
E000
E000
FFC0
FFC0
E000
E000
E000
E000
E000
E000
FFE0
FFE0
ENDCHAR
STARTCHAR Igrave
ENCODING 204
SWIDTH 314 0
DWIDTH 8 0
BBX 7 22 -1 0
BITMAP
F0
38
1C
02
1E
1E
1E
1E
1E
1E
1E
1E
1E
1E
1E
1E
1E
1E
1E
1E
1E
1E
ENDCHAR
STARTCHAR Iacute
ENCODING 205
SWIDTH 314 0
DWIDTH 8 0
BBX 7 22 2 0
BITMAP
3E
78
E0
00
F0
F0
F0
F0
F0
F0
F0
F0
F0
F0
F0
F0
F0
F0
F0
F0
F0
F0
ENDCHAR
STARTCHAR Icircumflex
ENCODING 206
SWIDTH 314 0
DWIDTH 8 0
BBX 10 22 -1 0
BITMAP
1E00
3F00
7380
8040
1E00
1E00
1E00
1E00
1E00
1E00
1E00
1E00
1E00
1E00
1E00
1E00
1E00
1E00
1E00
1E00
1E00
1E00
ENDCHAR
STARTCHAR Idieresis
ENCODING 207
SWIDTH 314 0
DWIDTH 8 0
BBX 8 22 0 0
BITMAP
C7
E7
E7
00
3C
3C
3C
3C
3C
3C
3C
3C
3C
3C
3C
3C
3C
3C
3C
3C
3C
3C
ENDCHAR
STARTCHAR Eth
ENCODING 208
SWIDTH 790 0
DWIDTH 20 0
BBX 18 18 1 0
BITMAP
3FF000
3FFC00
383E00
380F00
380780
380380
3803C0
3803C0
FFC3C0
FFC3C0
3803C0
3803C0
380380
380780
380F00
383E00
3FFC00
3FF000
ENDCHAR
STARTCHAR Ntilde
ENCODING 209
SWIDTH 756 0
DWIDTH 19 0
BBX 15 22 2 0
BITMAP
0730
0FE0
0DE0
0000
E00E
E00E
F00E
F80E
FC0E
FE0E
EE0E
EF0E
E78E
E3CE
E1EE
E0EE
E0FE
E07E
E03E
E01E
E01E
E00E
ENDCHAR
STARTCHAR Ograve
ENCODING 210
SWIDTH 799 0
DWIDTH 20 0
BBX 18 22 1 0
BITMAP
0F8000
03C000
01E000
000000
03F000
0FFC00
3F3F00
380700
780780
F003C0
F003C0
E001C0
E001C0
E001C0
E001C0
F003C0
F003C0
780780
380700
3F3F00
0FFC00
03F000
ENDCHAR
STARTCHAR Oacute
ENCODING 211
SWIDTH 799 0
DWIDTH 20 0
BBX 18 22 1 0
BITMAP
007C00
00F000
01C000
000000
03F000
0FFC00
3F3F00
380700
780780
F003C0
F003C0
E001C0
E001C0
E001C0
E001C0
F003C0
F003C0
780780
380700
3F3F00
0FFC00
03F000
ENDCHAR
STARTCHAR Ocircumflex
ENCODING 212
SWIDTH 799 0
DWIDTH 20 0
BBX 18 22 1 0
BITMAP
01E000
03F000
073800
080400
03F000
0FFC00
3F3F00
380700
780780
F003C0
F003C0
E001C0
E001C0
E001C0
E001C0
F003C0
F003C0
780780
380700
3F3F00
0FFC00
03F000
ENDCHAR
STARTCHAR Otilde
ENCODING 213
SWIDTH 799 0
DWIDTH 20 0
BBX 18 22 1 0
BITMAP
03D800
07F800
06F000
000000
03F000
0FFC00
3F3F00
380700
780780
F003C0
F003C0
E001C0
E001C0
E001C0
E001C0
F003C0
F003C0
780780
380700
3F3F00
0FFC00
03F000
ENDCHAR
STARTCHAR Odieresis
ENCODING 214
SWIDTH 799 0
DWIDTH 20 0
BBX 18 22 1 0
BITMAP
071800
073800
073800
000000
03F000
0FFC00
3F3F00
380700
780780
F003C0
F003C0
E001C0
E001C0
E001C0
E001C0
F003C0
F003C0
780780
380700
3F3F00
0FFC00
03F000
ENDCHAR
STARTCHAR multiply
ENCODING 215
SWIDTH 580 0
DWIDTH 15 0
BBX 12 12 1 2
BITMAP
2020
7070
78E0
3DC0
1F80
0F00
0F80
1FC0
39E0
70F0
E060
4000
ENDCHAR
STARTCHAR Oslash
ENCODING 216
SWIDTH 799 0
DWIDTH 20 0
BBX 18 20 1 -1
BITMAP
0001C0
03F380
0FFF00
3F3F00
380F80
781F80
F01BC0
F033C0
E071C0
E0E1C0
E0C1C0
E1C1C0
F383C0
F30380
7E0780
7E0700
3F3F00
1FFC00
37F000
E00000
ENDCHAR
STARTCHAR Ugrave
ENCODING 217
SWIDTH 728 0
DWIDTH 18 0
BBX 15 22 2 0
BITMAP
3E00
0F00
0780
0000
E01E
E01E
E01E
E01E
E01E
E01E
E01E
E01E
E01E
E01E
E01E
E01E
E01C
F01C
703C
7CF8
3FF0
0FC0
ENDCHAR
STARTCHAR Uacute
ENCODING 218
SWIDTH 728 0
DWIDTH 18 0
BBX 15 22 2 0
BITMAP
01F0
03C0
0700
0000
E01E
E01E
E01E
E01E
E01E
E01E
E01E
E01E
E01E
E01E
E01E
E01E
E01C
F01C
703C
7CF8
3FF0
0FC0
ENDCHAR
STARTCHAR Ucircumflex
ENCODING 219
SWIDTH 728 0
DWIDTH 18 0
BBX 15 22 2 0
BITMAP
0380
0FC0
1CE0
0010
E01E
E01E
E01E
E01E
E01E
E01E
E01E
E01E
E01E
E01E
E01E
E01E
E01C
F01C
703C
7CF8
3FF0
0FC0
ENDCHAR
STARTCHAR Udieresis
ENCODING 220
SWIDTH 728 0
DWIDTH 18 0
BBX 15 22 2 0
BITMAP
1C60
1CE0
1C60
0000
E01E
E01E
E01E
E01E
E01E
E01E
E01E
E01E
E01E
E01E
E01E
E01E
E01C
F01C
703C
7CF8
3FF0
0FC0
ENDCHAR
STARTCHAR Yacute
ENCODING 221
SWIDTH 654 0
DWIDTH 16 0
BBX 16 22 0 0
BITMAP
00F8
01E0
03C0
0000
F007
700F
781E
3C1C
1C3C
1E38
0E78
0F70
07E0
03E0
03C0
03C0
03C0
03C0
03C0
03C0
03C0
03C0
ENDCHAR
STARTCHAR Thorn
ENCODING 222
SWIDTH 625 0
DWIDTH 16 0
BBX 13 18 2 0
BITMAP
E000
E000
E000
FF80
FFE0
E1F0
E070
E078
E078
E078
E078
E0F0
FFE0
FFC0
E000
E000
E000
E000
ENDCHAR
STARTCHAR germandbls
ENCODING 223
SWIDTH 635 0
DWIDTH 16 0
BBX 13 18 2 0
BITMAP
0F80
3FE0
7CF0
7070
F070
E070
E1E0
E3C0
E380
E3C0
E3E0
E1F0
E078
E038
E038
E778
EFF0
E3E0
ENDCHAR
STARTCHAR agrave
ENCODING 224
SWIDTH 523 0
DWIDTH 13 0
BBX 11 18 1 0
BITMAP
3C00
1C00
0E00
0300
0000
1F00
7FC0
7BC0
01E0
00E0
00E0
1FE0
7FE0
F0E0
E0E0
F3E0
7FE0
3CE0
ENDCHAR
STARTCHAR aacute
ENCODING 225
SWIDTH 523 0
DWIDTH 13 0
BBX 11 18 1 0
BITMAP
03C0
0780
0700
0C00
0000
1F00
7FC0
7BC0
01E0
00E0
00E0
1FE0
7FE0
F0E0
E0E0
F3E0
7FE0
3CE0
ENDCHAR
STARTCHAR acircumflex
ENCODING 226
SWIDTH 523 0
DWIDTH 13 0
BBX 11 18 1 0
BITMAP
0F00
1F80
3980
30C0
0000
1F00
7FC0
7BC0
01E0
00E0
00E0
1FE0
7FE0
F0E0
E0E0
F3E0
7FE0
3CE0
ENDCHAR
STARTCHAR atilde
ENCODING 227
SWIDTH 523 0
DWIDTH 13 0
BBX 11 18 1 0
BITMAP
1CC0
3FC0
3780
0000
0000
1F00
7FC0
7BC0
01E0
00E0
00E0
1FE0
7FE0
F0E0
E0E0
F3E0
7FE0
3CE0
ENDCHAR
STARTCHAR adieresis
ENCODING 228
SWIDTH 523 0
DWIDTH 13 0
BBX 11 18 1 0
BITMAP
3980
3BC0
3980
0000
0000
1F00
7FC0
7BC0
01E0
00E0
00E0
1FE0
7FE0
F0E0
E0E0
F3E0
7FE0
3CE0
ENDCHAR
STARTCHAR aring
ENCODING 229
SWIDTH 523 0
DWIDTH 13 0
BBX 11 19 1 0
BITMAP
0E00
1900
1980
1900
0F00
0000
1F00
7FC0
7BC0
01E0
00E0
00E0
1FE0
7FE0
F0E0
E0E0
F3E0
7FE0
3CE0
ENDCHAR
STARTCHAR ae
ENCODING 230
SWIDTH 825 0
DWIDTH 21 0
BBX 19 13 1 0
BITMAP
1F1F00
7FBF80
7BFBC0
01E0C0
00E0E0
0FFFE0
3FFFE0
7CE000
E0E000
E1E000
F3F9E0
7F3FC0
3E1F00
ENDCHAR
STARTCHAR ccedilla
ENCODING 231
SWIDTH 477 0
DWIDTH 12 0
BBX 11 17 1 -4
BITMAP
1F80
3FC0
7DC0
F000
E000
E000
E000
E000
E000
F080
7DC0
3FE0
1F00
0E00
0700
0F00
1E00
ENDCHAR
STARTCHAR egrave
ENCODING 232
SWIDTH 534 0
DWIDTH 13 0
BBX 12 18 1 0
BITMAP
3C00
0E00
0600
0300
0000
1F00
3FC0
79E0
E0E0
E060
FFE0
FFF0
E000
E000
F000
78E0
3FE0
1F80
ENDCHAR
STARTCHAR eacute
ENCODING 233
SWIDTH 534 0
DWIDTH 13 0
BBX 12 18 1 0
BITMAP
03C0
0380
0700
0C00
0000
1F00
3FC0
79E0
E0E0
E060
FFE0
FFF0
E000
E000
F000
78E0
3FE0
1F80
ENDCHAR
STARTCHAR ecircumflex
ENCODING 234
SWIDTH 534 0
DWIDTH 13 0
BBX 12 18 1 0
BITMAP
0F00
1F80
19C0
30C0
0000
1F00
3FC0
79E0
E0E0
E060
FFE0
FFF0
E000
E000
F000
78E0
3FE0
1F80
ENDCHAR
STARTCHAR edieresis
ENCODING 235
SWIDTH 534 0
DWIDTH 13 0
BBX 12 18 1 0
BITMAP
39C0
39C0
39C0
0000
0000
1F00
3FC0
79E0
E0E0
E060
FFE0
FFF0
E000
E000
F000
78E0
3FE0
1F80
ENDCHAR
STARTCHAR igrave
ENCODING 236
SWIDTH 271 0
DWIDTH 7 0
BBX 6 18 -1 0
BITMAP
F0
38
1C
0C
00
1C
1C
1C
1C
1C
1C
1C
1C
1C
1C
1C
1C
1C
ENDCHAR
STARTCHAR iacute
ENCODING 237
SWIDTH 271 0
DWIDTH 7 0
BBX 6 18 2 0
BITMAP
3C
70
E0
C0
00
E0
E0
E0
E0
E0
E0
E0
E0
E0
E0
E0
E0
E0
ENDCHAR
STARTCHAR icircumflex
ENCODING 238
SWIDTH 271 0
DWIDTH 7 0
BBX 9 18 -1 0
BITMAP
1C00
3E00
7700
C180
0000
1C00
1C00
1C00
1C00
1C00
1C00
1C00
1C00
1C00
1C00
1C00
1C00
1C00
ENDCHAR
STARTCHAR idieresis
ENCODING 239
SWIDTH 271 0
DWIDTH 7 0
BBX 9 18 -1 0
BITMAP
6300
F780
6300
0000
0000
1C00
1C00
1C00
1C00
1C00
1C00
1C00
1C00
1C00
1C00
1C00
1C00
1C00
ENDCHAR
STARTCHAR eth
ENCODING 240
SWIDTH 568 0
DWIDTH 14 0
BBX 12 18 1 0
BITMAP
1C40
1FE0
0F80
0FC0
0CE0
0060
1F70
3FF0
79F0
F070
E070
E070
E070
E070
F0F0
79E0
3FC0
1F80
ENDCHAR
STARTCHAR ntilde
ENCODING 241
SWIDTH 568 0
DWIDTH 14 0
BBX 11 18 2 0
BITMAP
3980
3F80
7F00
0000
0000
CF80
FFC0
FBC0
E1E0
E0E0
E0E0
E0E0
E0E0
E0E0
E0E0
E0E0
E0E0
E0E0
ENDCHAR
STARTCHAR ograve
ENCODING 242
SWIDTH 568 0
DWIDTH 14 0
BBX 12 18 1 0
BITMAP
3C00
0E00
0600
0300
0000
1F80
3FC0
79E0
F070
E070
E070
E070
E070
E070
F070
79E0
3FC0
1F80
ENDCHAR
STARTCHAR oacute
ENCODING 243
SWIDTH 568 0
DWIDTH 14 0
BBX 12 18 1 0
BITMAP
03C0
0380
0700
0C00
0000
1F80
3FC0
79E0
F070
E070
E070
E070
E070
E070
F070
79E0
3FC0
1F80
ENDCHAR
STARTCHAR ocircumflex
ENCODING 244
SWIDTH 568 0
DWIDTH 14 0
BBX 12 18 1 0
BITMAP
0F00
1F80
19C0
30C0
0000
1F80
3FC0
79E0
F070
E070
E070
E070
E070
E070
F070
79E0
3FC0
1F80
ENDCHAR
STARTCHAR otilde
ENCODING 245
SWIDTH 568 0
DWIDTH 14 0
BBX 12 18 1 0
BITMAP
1CC0
1FC0
3F80
0000
0000
1F80
3FC0
79E0
F070
E070
E070
E070
E070
E070
F070
79E0
3FC0
1F80
ENDCHAR
STARTCHAR odieresis
ENCODING 246
SWIDTH 568 0
DWIDTH 14 0
BBX 12 18 1 0
BITMAP
19C0
3DC0
19C0
0000
0000
1F80
3FC0
79E0
F070
E070
E070
E070
E070
E070
F070
79E0
3FC0
1F80
ENDCHAR
STARTCHAR divide
ENCODING 247
SWIDTH 580 0
DWIDTH 15 0
BBX 12 13 1 2
BITMAP
0600
0F00
0F00
0600
0000
0000
FFF0
FFF0
0000
0600
0F00
0F00
0600
ENDCHAR
STARTCHAR oslash
ENCODING 248
SWIDTH 568 0
DWIDTH 14 0
BBX 13 15 1 -1
BITMAP
0038
1FF0
3FE0
79E0
F1F0
E1F0
E370
E670
EE70
FC70
F870
79E0
7FC0
7F80
C000
ENDCHAR
STARTCHAR ugrave
ENCODING 249
SWIDTH 568 0
DWIDTH 14 0
BBX 12 18 1 0
BITMAP
3C00
0E00
0600
0300
0000
E0F0
E0F0
E0F0
E0F0
E0F0
E0F0
E0F0
E0F0
E0F0
70F0
7BF0
7F70
1E70
ENDCHAR
STARTCHAR uacute
ENCODING 250
SWIDTH 568 0
DWIDTH 14 0
BBX 12 18 1 0
BITMAP
03C0
0380
0700
0C00
0000
E0F0
E0F0
E0F0
E0F0
E0F0
E0F0
E0F0
E0F0
E0F0
70F0
7BF0
7F70
1E70
ENDCHAR
STARTCHAR ucircumflex
ENCODING 251
SWIDTH 568 0
DWIDTH 14 0
BBX 12 18 1 0
BITMAP
0F00
1F80
19C0
30C0
0000
E0F0
E0F0
E0F0
E0F0
E0F0
E0F0
E0F0
E0F0
E0F0
70F0
7BF0
7F70
1E70
ENDCHAR
STARTCHAR udieresis
ENCODING 252
SWIDTH 568 0
DWIDTH 14 0
BBX 12 18 1 0
BITMAP
39C0
39C0
39C0
0000
0000
E0F0
E0F0
E0F0
E0F0
E0F0
E0F0
E0F0
E0F0
E0F0
70F0
7BF0
7F70
1E70
ENDCHAR
STARTCHAR yacute
ENCODING 253
SWIDTH 533 0
DWIDTH 13 0
BBX 13 22 0 -4
BITMAP
01E0
03C0
0380
0600
0000
F038
7078
7070
3870
38E0
3CE0
1CC0
1DC0
0FC0
0F80
0780
0700
0700
0600
0E00
0E00
1C00
ENDCHAR
STARTCHAR thorn
ENCODING 254
SWIDTH 565 0
DWIDTH 14 0
BBX 11 23 2 -4
BITMAP
E000
E000
E000
E000
E000
E000
EF80
FFC0
FBE0
E0E0
E0E0
E0E0
E0E0
E0E0
E0E0
E1E0
F3C0
FFC0
EF00
E000
E000
E000
E000
ENDCHAR
STARTCHAR ydieresis
ENCODING 255
SWIDTH 533 0
DWIDTH 13 0
BBX 13 22 0 -4
BITMAP
1CE0
1CE0
1CE0
0000
0000
F038
7078
7070
3870
38E0
3CE0
1CC0
1DC0
0FC0
0F80
0780
0700
0700
0600
0E00
0E00
1C00
ENDCHAR
STARTCHAR Aogonek
ENCODING 260
SWIDTH 710 0
DWIDTH 18 0
BBX 18 22 0 -4
BITMAP
01E000
01E000
03F000
03F000
077000
073800
073800
0E3C00
0E1C00
1E1C00
1C0E00
1FFE00
3FFF00
380700
780700
700780
700380
F003C0
000300
000300
0007C0
0003C0
ENDCHAR
STARTCHAR aogonek
ENCODING 261
SWIDTH 523 0
DWIDTH 13 0
BBX 12 17 1 -4
BITMAP
1F00
7FC0
73C0
00E0
00E0
0FE0
3FE0
7CE0
E0E0
E0E0
F3E0
7FE0
3CE0
00C0
01C0
01F0
00E0
ENDCHAR
STARTCHAR Cacute
ENCODING 262
SWIDTH 670 0
DWIDTH 17 0
BBX 15 22 1 0
BITMAP
007C
00F0
01C0
0000
03F8
0FFE
3F3E
7C04
7800
F000
F000
E000
E000
E000
E000
F000
F000
7800
780C
3F3E
1FFC
07F0
ENDCHAR
STARTCHAR cacute
ENCODING 263
SWIDTH 477 0
DWIDTH 12 0
BBX 11 18 1 0
BITMAP
03C0
0380
0700
0C00
0000
1F80
3FC0
7DC0
F000
E000
E000
E000
E000
E000
F080
79C0
3FE0
1F00
ENDCHAR
STARTCHAR Eogonek
ENCODING 280
SWIDTH 579 0
DWIDTH 14 0
BBX 11 22 2 -4
BITMAP
FFE0
FFE0
E000
E000
E000
E000
E000
E000
FFC0
FFC0
E000
E000
E000
E000
E000
E000
FFE0
FFE0
0180
0180
03E0
01E0
ENDCHAR
STARTCHAR eogonek
ENCODING 281
SWIDTH 534 0
DWIDTH 13 0
BBX 12 17 1 -4
BITMAP
1F00
3FC0
79E0
E0E0
E060
FFE0
FFF0
E000
E000
F000
78E0
3FE0
1F00
0600
0E00
0F80
0780
ENDCHAR
STARTCHAR dotlessi
ENCODING 305
SWIDTH 271 0
DWIDTH 7 0
BBX 3 13 2 0
BITMAP
E0
E0
E0
E0
E0
E0
E0
E0
E0
E0
E0
E0
E0
ENDCHAR
STARTCHAR Lslash
ENCODING 321
SWIDTH 550 0
DWIDTH 14 0
BBX 13 18 0 0
BITMAP
1C00
1C00
1C00
1C00
1C00
1C20
1CE0
1FC0
1F80
7E00
FC00
FC00
9C00
1C00
1C00
1FF8
1FF8
1FF8
ENDCHAR
STARTCHAR lslash
ENCODING 322
SWIDTH 339 0
DWIDTH 8 0
BBX 7 19 1 0
BITMAP
38
38
38
38
38
38
3A
3E
7E
F8
F8
B8
38
38
38
38
38
38
38
ENDCHAR
STARTCHAR Nacute
ENCODING 323
SWIDTH 756 0
DWIDTH 19 0
BBX 15 22 2 0
BITMAP
00F0
01C0
0380
0400
E00E
E00E
F00E
F80E
FC0E
FE0E
EE0E
EF0E
E78E
E3CE
E1EE
E0EE
E0FE
E07E
E03E
E01E
E01E
E00E
ENDCHAR
STARTCHAR nacute
ENCODING 324
SWIDTH 568 0
DWIDTH 14 0
BBX 11 18 2 0
BITMAP
03C0
0700
0E00
0C00
0000
CF80
FFC0
FBC0
E1E0
E0E0
E0E0
E0E0
E0E0
E0E0
E0E0
E0E0
E0E0
E0E0
ENDCHAR
STARTCHAR OE
ENCODING 338
SWIDTH 1081 0
DWIDTH 27 0
BBX 25 18 1 0
BITMAP
07E3FF80
1FFBFF80
3F7F8000
780F8000
700F8000
F0078000
F0078000
E0078000
E003FE00
E003FE00
E0078000
F0078000
F0078000
700F8000
780F8000
3F7F8000
1FFBFF80
07E3FF80
ENDCHAR
STARTCHAR oe
ENCODING 339
SWIDTH 874 0
DWIDTH 22 0
BBX 20 13 1 0
BITMAP
1F0780
3FDFC0
79FDE0
F0F070
E07070
E07FF0
E07FF0
E07000
E07000
F0F800
79FCF0
3FDFE0
1F07C0
ENDCHAR
STARTCHAR Sacute
ENCODING 346
SWIDTH 553 0
DWIDTH 14 0
BBX 13 22 0 0
BITMAP
01F0
03C0
0380
0400
0FC0
1FF0
3CF0
7820
7000
7800
7C00
3F80
3FE0
0FF0
03F0
0078
0078
0078
6070
7CF0
FFE0
1F80
ENDCHAR
STARTCHAR sacute
ENCODING 347
SWIDTH 437 0
DWIDTH 11 0
BBX 9 18 1 0
BITMAP
0780
0F00
0E00
1800
0000
3E00
7F80
F300
E000
E000
FC00
7F00
0F80
0380
0380
E780
FF00
7E00
ENDCHAR
STARTCHAR Scaron
ENCODING 352
SWIDTH 536 0
DWIDTH 13 0
BBX 13 22 0 0
BITMAP
1870
0FE0
0780
0000
0FC0
1FF0
3CF0
7820
7000
7800
7C00
3F80
3FE0
0FF0
03F0
0078
0078
0078
6070
7CF0
FFE0
1F80
ENDCHAR
STARTCHAR scaron
ENCODING 353
SWIDTH 437 0
DWIDTH 11 0
BBX 9 18 1 0
BITMAP
F380
3F00
3E00
1C00
0000
3E00
7F80
F300
E000
E000
FC00
7F00
0F80
0380
0380
E780
FF00
7E00
ENDCHAR
STARTCHAR Ydieresis
ENCODING 376
SWIDTH 654 0
DWIDTH 16 0
BBX 16 22 0 0
BITMAP
0E30
0E78
0E30
0000
F007
700F
781E
3C1C
1C3C
1E38
0E78
0F70
07E0
03E0
03C0
03C0
03C0
03C0
03C0
03C0
03C0
03C0
ENDCHAR
STARTCHAR Zacute
ENCODING 377
SWIDTH 617 0
DWIDTH 15 0
BBX 14 22 1 0
BITMAP
01F0
03C0
0700
0000
FFFC
FFFC
0078
0078
00F0
01E0
03E0
03C0
0780
0F00
0F00
1E00
3C00
3C00
7800
F000
FFFC
FFFC
ENDCHAR
STARTCHAR zacute
ENCODING 378
SWIDTH 469 0
DWIDTH 12 0
BBX 10 18 1 0
BITMAP
07C0
0700
0E00
0800
0000
FFC0
FFC0
03C0
0380
0700
0E00
1E00
1C00
3800
7000
F000
FFC0
FFC0
ENDCHAR
STARTCHAR Zdotaccent
ENCODING 379
SWIDTH 617 0
DWIDTH 15 0
BBX 14 23 1 0
BITMAP
0300
0780
0780
0300
0000
FFFC
FFFC
0078
0078
00F0
01E0
03E0
03C0
0780
0F00
0F00
1E00
3C00
3C00
7800
F000
FFFC
FFFC
ENDCHAR
STARTCHAR zdotaccent
ENCODING 380
SWIDTH 469 0
DWIDTH 12 0
BBX 10 19 1 0
BITMAP
0C00
1E00
1E00
0E00
0000
0000
FFC0
FFC0
03C0
0380
0700
0E00
1E00
1C00
3800
7000
F000
FFC0
FFC0
ENDCHAR
STARTCHAR Zcaron
ENCODING 381
SWIDTH 617 0
DWIDTH 15 0
BBX 14 22 1 0
BITMAP
1870
0FC0
0780
0000
FFFC
FFFC
0078
0078
00F0
01E0
03E0
03C0
0780
0F00
0F00
1E00
3C00
3C00
7800
F000
FFFC
FFFC
ENDCHAR
STARTCHAR zcaron
ENCODING 382
SWIDTH 469 0
DWIDTH 12 0
BBX 10 18 1 0
BITMAP
71C0
3F00
1F00
0E00
0000
FFC0
FFC0
03C0
0380
0700
0E00
1E00
1C00
3800
7000
F000
FFC0
FFC0
ENDCHAR
STARTCHAR florin
ENCODING 402
SWIDTH 580 0
DWIDTH 15 0
BBX 12 22 1 -4
BITMAP
00F0
01F0
03C0
0780
0700
0700
1FF0
1FF0
0700
0700
0F00
0E00
0E00
0E00
0E00
0E00
0E00
0E00
1C00
3C00
F800
F000
ENDCHAR
STARTCHAR circumflex
ENCODING 710
SWIDTH 319 0
DWIDTH 8 0
BBX 8 4 0 14
BITMAP
3C
7E
E6
C3
ENDCHAR
STARTCHAR caron
ENCODING 711
SWIDTH 319 0
DWIDTH 8 0
BBX 8 4 0 14
BITMAP
E7
7E
3C
18
ENDCHAR
STARTCHAR uni02C9
ENCODING 713
SWIDTH 319 0
DWIDTH 8 0
BBX 8 2 0 15
BITMAP
FF
FF
ENDCHAR
STARTCHAR breve
ENCODING 728
SWIDTH 319 0
DWIDTH 8 0
BBX 8 4 0 14
BITMAP
C3
E7
7E
3C
ENDCHAR
STARTCHAR dotaccent
ENCODING 729
SWIDTH 319 0
DWIDTH 8 0
BBX 4 4 2 15
BITMAP
60
F0
F0
60
ENDCHAR
STARTCHAR ring
ENCODING 730
SWIDTH 319 0
DWIDTH 8 0
BBX 6 5 1 14
BITMAP
78
CC
CC
CC
78
ENDCHAR
STARTCHAR ogonek
ENCODING 731
SWIDTH 319 0
DWIDTH 8 0
BBX 5 5 2 -4
BITMAP
60
C0
C0
F0
F8
ENDCHAR
STARTCHAR tilde
ENCODING 732
SWIDTH 319 0
DWIDTH 8 0
BBX 8 3 0 15
BITMAP
73
FF
DE
ENDCHAR
STARTCHAR hungarumlaut
ENCODING 733
SWIDTH 319 0
DWIDTH 8 0
BBX 9 4 1 14
BITMAP
3B80
7700
6E00
DC00
ENDCHAR
STARTCHAR pi
ENCODING 960
SWIDTH 644 0
DWIDTH 16 0
BBX 15 13 1 0
BITMAP
FFFE
FFFE
3870
3870
3870
3870
3870
3870
3870
3870
7870
F870
F070
ENDCHAR
STARTCHAR endash
ENCODING 8211
SWIDTH 568 0
DWIDTH 14 0
BBX 10 2 2 6
BITMAP
FFC0
FFC0
ENDCHAR
STARTCHAR emdash
ENCODING 8212
SWIDTH 842 0
DWIDTH 21 0
BBX 17 2 2 6
BITMAP
FFFF80
FFFF80
ENDCHAR
STARTCHAR quoteleft
ENCODING 8216
SWIDTH 225 0
DWIDTH 6 0
BBX 4 7 1 12
BITMAP
30
60
E0
E0
E0
E0
40
ENDCHAR
STARTCHAR quoteright
ENCODING 8217
SWIDTH 225 0
DWIDTH 6 0
BBX 4 7 1 12
BITMAP
60
70
70
70
60
E0
C0
ENDCHAR
STARTCHAR quotesinglbase
ENCODING 8218
SWIDTH 225 0
DWIDTH 6 0
BBX 4 8 1 -4
BITMAP
20
60
70
70
70
60
C0
80
ENDCHAR
STARTCHAR quotedblleft
ENCODING 8220
SWIDTH 391 0
DWIDTH 10 0
BBX 8 7 1 12
BITMAP
33
66
E6
EE
EE
E7
44
ENDCHAR
STARTCHAR quotedblright
ENCODING 8221
SWIDTH 391 0
DWIDTH 10 0
BBX 8 7 1 12
BITMAP
66
77
77
77
66
E6
CC
ENDCHAR
STARTCHAR quotedblbase
ENCODING 8222
SWIDTH 391 0
DWIDTH 10 0
BBX 8 8 1 -4
BITMAP
22
67
77
77
77
66
CE
84
ENDCHAR
STARTCHAR dagger
ENCODING 8224
SWIDTH 580 0
DWIDTH 15 0
BBX 13 23 1 -4
BITMAP
0700
0700
0700
0700
0700
0700
FEF0
FFF8
0600
0600
0600
0600
0600
0700
0700
0700
0700
0700
0700
0700
0700
0700
0700
ENDCHAR
STARTCHAR daggerdbl
ENCODING 8225
SWIDTH 580 0
DWIDTH 15 0
BBX 13 23 1 -4
BITMAP
0700
0700
0700
0700
0700
0700
FEF0
FFF8
0600
0600
0600
0600
0600
0600
0600
FFF8
FEF0
0700
0700
0700
0700
0700
0700
ENDCHAR
STARTCHAR bullet
ENCODING 8226
SWIDTH 580 0
DWIDTH 15 0
BBX 11 11 2 2
BITMAP
1E00
3F80
7FC0
FFC0
FFE0
FFE0
FFE0
FFC0
7FC0
7F80
1E00
ENDCHAR
STARTCHAR ellipsis
ENCODING 8230
SWIDTH 758 0
DWIDTH 19 0
BBX 17 4 1 0
BITMAP
61C300
F1C780
F1C780
61C300
ENDCHAR
STARTCHAR perthousand
ENCODING 8240
SWIDTH 1173 0
DWIDTH 29 0
BBX 28 18 1 0
BITMAP
3C038000
7E070000
E7060000
C30E0000
C31C0000
C3380000
E7300000
7E700000
3CE00000
01CF0780
039F8FE0
03B9CEE0
0738DC60
0E30DC70
1C30DC70
1C38CC60
381F8FE0
700F0780
ENDCHAR
STARTCHAR guilsinglleft
ENCODING 8249
SWIDTH 321 0
DWIDTH 8 0
BBX 4 10 2 2
BITMAP
30
30
70
60
E0
C0
E0
60
70
30
ENDCHAR
STARTCHAR guilsinglright
ENCODING 8250
SWIDTH 321 0
DWIDTH 8 0
BBX 4 10 2 2
BITMAP
C0
C0
E0
60
30
30
70
60
E0
C0
ENDCHAR
STARTCHAR fraction
ENCODING 8260
SWIDTH 355 0
DWIDTH 9 0
BBX 13 18 -2 0
BITMAP
0018
0030
0070
0060
00C0
01C0
0180
0380
0300
0600
0E00
0C00
1800
1800
3000
7000
6000
C000
ENDCHAR
STARTCHAR Euro
ENCODING 8364
SWIDTH 580 0
DWIDTH 15 0
BBX 14 18 0 0
BITMAP
03F0
07F8
0F3C
1E08
1C00
3C00
FFF0
FFF0
3800
FFC0
FFC0
3800
3C00
1C00
1E08
0F3C
07F8
03F0
ENDCHAR
STARTCHAR trademark
ENCODING 8482
SWIDTH 726 0
DWIDTH 18 0
BBX 16 8 1 10
BITMAP
FD87
FDC7
31CF
31EF
31FB
31BB
31B3
3183
ENDCHAR
STARTCHAR Omega
ENCODING 8486
SWIDTH 740 0
DWIDTH 19 0
BBX 17 18 1 0
BITMAP
07E000
1FF800
3E7E00
780E00
F00F00
F00700
E00780
E00780
E00780
F00700
700F00
7C1E00
3E7C00
0E7800
067000
067000
FE7F80
FE7F80
ENDCHAR
STARTCHAR partialdiff
ENCODING 8706
SWIDTH 580 0
DWIDTH 15 0
BBX 13 18 1 0
BITMAP
07C0
1FE0
1CF0
0070
0030
0038
1FB8
3FF8
78F8
F078
E070
E070
E070
E070
F0E0
7BC0
7F80
1F00
ENDCHAR
STARTCHAR Delta
ENCODING 8710
SWIDTH 733 0
DWIDTH 18 0
BBX 18 18 0 0
BITMAP
01E000
01E000
01F000
03F000
03F800
07B800
073800
071C00
0E1C00
0E1E00
1E0E00
1C0E00
3C0700
380700
380780
7FFF80
7FFFC0
FFFFC0
ENDCHAR
STARTCHAR product
ENCODING 8719
SWIDTH 686 0
DWIDTH 17 0
BBX 16 22 1 -4
BITMAP
FFFF
FFFF
3838
3838
3838
3838
3838
3838
3838
3838
3838
3838
3838
3838
3838
3838
3838
3838
3838
3838
3838
3838
ENDCHAR
STARTCHAR summation
ENCODING 8721
SWIDTH 686 0
DWIDTH 17 0
BBX 15 22 1 -4
BITMAP
FFFE
FFFE
7800
3C00
3C00
1E00
0F00
0780
03C0
03C0
01E0
01E0
01C0
03C0
0780
0F00
1E00
3E00
3C00
7800
FFFE
FFFE
ENDCHAR
STARTCHAR minus
ENCODING 8722
SWIDTH 580 0
DWIDTH 15 0
BBX 11 2 2 7
BITMAP
FFE0
FFE0
ENDCHAR
STARTCHAR radical
ENCODING 8730
SWIDTH 582 0
DWIDTH 15 0
BBX 15 22 1 0
BITMAP
0006
000C
001C
001C
001C
0018
0038
0038
0030
0070
0070
0060
F8E0
F8E0
1CC0
1DC0
1DC0
0F80
0F80
0F80
0700
0700
ENDCHAR
STARTCHAR infinity
ENCODING 8734
SWIDTH 686 0
DWIDTH 17 0
BBX 16 9 1 3
BITMAP
3C78
7EFE
EFEE
C3C7
C387
C3C7
EFEE
7EFE
3C38
ENDCHAR
STARTCHAR integral
ENCODING 8747
SWIDTH 413 0
DWIDTH 10 0
BBX 12 22 -1 -4
BITMAP
00F0
01F0
03C0
0380
0700
0700
0700
0700
0700
0700
0700
0700
0E00
0E00
0E00
0E00
0E00
0E00
0E00
3C00
F800
F000
ENDCHAR
STARTCHAR approxequal
ENCODING 8776
SWIDTH 580 0
DWIDTH 15 0
BBX 11 8 2 5
BITMAP
7C40
FFC0
CFE0
0000
0000
FE40
FFC0
87E0
ENDCHAR
STARTCHAR notequal
ENCODING 8800
SWIDTH 580 0
DWIDTH 15 0
BBX 11 13 2 2
BITMAP
01C0
0180
0300
FFE0
FFE0
0600
0E00
0C00
FFE0
FFE0
3800
3000
7000
ENDCHAR
STARTCHAR lessequal
ENCODING 8804
SWIDTH 580 0
DWIDTH 15 0
BBX 10 14 2 1
BITMAP
00C0
03C0
0F80
3E00
F800
F800
7E00
1F80
03C0
00C0
0000
0000
FFC0
FFC0
ENDCHAR
STARTCHAR greaterequal
ENCODING 8805
SWIDTH 580 0
DWIDTH 15 0
BBX 10 14 3 1
BITMAP
C000
F000
FC00
3F00
07C0
07C0
1F00
7C00
F000
C000
0000
0000
FFC0
FFC0
ENDCHAR
STARTCHAR lozenge
ENCODING 9674
SWIDTH 580 0
DWIDTH 15 0
BBX 12 20 1 -1
BITMAP
0700
0F00
0F80
1D80
1D80
19C0
38C0
30E0
7060
6070
E070
7060
30E0
38C0
19C0
1D80
1D80
0F80
0F00
0700
ENDCHAR
STARTCHAR uni2669
ENCODING 9833
SWIDTH 0 0
DWIDTH 0 0
BBX 1 23 0 -4
BITMAP
80
80
80
80
80
80
80
80
80
80
80
80
80
80
80
80
80
80
80
80
80
80
80
ENDCHAR
STARTCHAR fi
ENCODING 64257
SWIDTH 601 0
DWIDTH 15 0
BBX 13 19 0 0
BITMAP
03E0
0FE0
1F00
1C00
3800
3800
FFF8
FFF8
3838
3838
3838
3838
3838
3838
3838
3838
3838
3838
3838
ENDCHAR
STARTCHAR fl
ENCODING 64258
SWIDTH 617 0
DWIDTH 15 0
BBX 14 19 0 0
BITMAP
07FC
0FFC
1E3C
3C3C
383C
383C
FF3C
FF3C
383C
383C
383C
383C
383C
383C
383C
383C
383C
383C
383C
ENDCHAR
STARTCHAR .notdef
ENCODING -1
SWIDTH 547 0
DWIDTH 14 0
BBX 12 18 1 0
BITMAP
FFF0
8010
8010
9F10
BF90
9390
81D0
8390
8790
8E10
8E10
8010
8010
8E10
8E10
8E10
8010
FFF0
ENDCHAR
STARTCHAR grave.case
ENCODING -1
SWIDTH 319 0
DWIDTH 8 0
BBX 7 3 -1 19
BITMAP
F8
3C
1E
ENDCHAR
STARTCHAR dieresis.case
ENCODING -1
SWIDTH 319 0
DWIDTH 8 0
BBX 8 3 0 19
BITMAP
C7
E7
E7
ENDCHAR
STARTCHAR macron.case
ENCODING -1
SWIDTH 319 0
DWIDTH 8 0
BBX 6 2 1 20
BITMAP
FC
FC
ENDCHAR
STARTCHAR acute.case
ENCODING -1
SWIDTH 319 0
DWIDTH 8 0
BBX 7 3 2 19
BITMAP
3E
78
F0
ENDCHAR
STARTCHAR circumflex.case
ENCODING -1
SWIDTH 319 0
DWIDTH 8 0
BBX 10 3 -1 19
BITMAP
1E00
3F00
F3C0
ENDCHAR
STARTCHAR caron.case
ENCODING -1
SWIDTH 319 0
DWIDTH 8 0
BBX 10 3 -1 19
BITMAP
E1C0
3F00
1E00
ENDCHAR
STARTCHAR breve.case
ENCODING -1
SWIDTH 319 0
DWIDTH 8 0
BBX 8 3 0 19
BITMAP
E7
FE
7C
ENDCHAR
STARTCHAR dotaccent.case
ENCODING -1
SWIDTH 319 0
DWIDTH 8 0
BBX 4 4 2 19
BITMAP
60
F0
F0
60
ENDCHAR
STARTCHAR ring.case
ENCODING -1
SWIDTH 319 0
DWIDTH 8 0
BBX 6 5 1 19
BITMAP
78
48
CC
48
78
ENDCHAR
STARTCHAR tilde.case
ENCODING -1
SWIDTH 319 0
DWIDTH 8 0
BBX 8 3 0 19
BITMAP
7B
FF
DE
ENDCHAR
STARTCHAR hungarumlaut.case
ENCODING -1
SWIDTH 319 0
DWIDTH 8 0
BBX 9 2 1 19
BITMAP
7F80
DC00
ENDCHAR
ENDFONT
